<svg width="25" height="62" viewBox="0 0 25 62" fill="none" xmlns="http://www.w3.org/2000/svg">
<path d="M17.5 38C10.7 49.6 3.66667 51.5 1 51C2.46863 52.3409 4.64671 54.1809 7 55.9182C9.41863 53.7788 14.9047 47.2 17.5 38Z" fill="#C4784E"/>
<path d="M17.5 38C14.9047 47.2 9.41863 53.7788 7 55.9182C8.98211 57.3815 11.0885 58.772 13 59.7301C14.5 54.8201 17.5 43.6 17.5 38Z" fill="#C4784E"/>
<path d="M16 61C17.5 59.7301 19.1667 45.5 17.5 38C17.5 43.6 14.5 54.8201 13 59.7301C14.7426 60.6036 15.0974 61.7641 16 61Z" fill="#C4784E"/>
<path d="M17.5 38C10.7 49.6 3.66667 51.5 1 51C2.46863 52.3409 4.64671 54.1809 7 55.9182M17.5 38C19.1667 45.5 17.5 59.7301 16 61C15.0974 61.7641 14.7426 60.6036 13 59.7301M17.5 38C14.9047 47.2 9.41863 53.7788 7 55.9182M17.5 38C17.5 43.6 14.5 54.8201 13 59.7301M7 55.9182C8.98211 57.3815 11.0885 58.772 13 59.7301" stroke="#22201F" stroke-width="0.1"/>
<path d="M22 0.5H19.5C22 14.5 24.3 27.2 17.5 38C25.9 32.4 24.8333 17 22 0.5Z" fill="#4C8A3D"/>
<path d="M14 43L17.5 38L18.5 45L14 43Z" fill="#070707"/>
</svg>
