<svg xmlns="http://www.w3.org/2000/svg" viewBox="0 0 86.6 75"><defs><style>.cls-1{fill:#fff;}.cls-2{fill:#cbd4d4;}.cls-3{fill:#00206a;}.cls-4{fill:#35ceff;}.cls-5{fill:#2f5ecc;}.cls-6{fill:#0083df;}.cls-7{fill:#69d5ff;}.cls-8{fill:#003db4;}</style></defs><g id="Layer_2" data-name="Layer 2"><g id="Layer_1-2" data-name="Layer 1"><polygon class="cls-1" points="0.22 74.88 43.3 0.25 86.39 74.88 0.22 74.88"/><path d="M43.3.5,86.17,74.75H.43L43.3.5m0-.5L0,75H86.6L43.3,0Z"/><polygon class="cls-2" points="0.22 74.88 14.43 50.25 28.65 74.88 0.22 74.88"/><path d="M14.43,50.5l14,24.25H.43l14-24.25m0-.5L0,75H28.87L14.43,50Z"/><polygon class="cls-2" points="57.95 74.88 72.17 50.25 86.39 74.88 57.95 74.88"/><path d="M72.17,50.5l14,24.25h-28l14-24.25m0-.5L57.74,75H86.6L72.17,50Z"/><polygon class="cls-2" points="29.08 24.88 43.3 0.25 57.52 24.88 29.08 24.88"/><path d="M43.3.5l14,24.25h-28L43.3.5m0-.5L28.87,25H57.74L43.3,0Z"/><polygon class="cls-3" points="14.65 49.88 28.87 25.25 43.09 49.88 14.65 49.88"/><path d="M28.87,25.5l14,24.25h-28l14-24.25m0-.5L14.43,50H43.3L28.87,25Z"/><polygon class="cls-4" points="43.52 49.88 57.73 25.25 71.95 49.88 43.52 49.88"/><path d="M57.74,25.5l14,24.25h-28l14-24.25m0-.5L43.3,50H72.17L57.74,25Z"/><polygon class="cls-5" points="29.08 74.88 43.3 50.25 57.52 74.88 29.08 74.88"/><path d="M43.3,50.5l14,24.25h-28l14-24.25m0-.5L28.87,75H57.74L43.3,50Z"/><polygon class="cls-6" points="43.52 50.13 71.95 50.13 57.73 74.75 43.52 50.13"/><path d="M71.74,50.25l-14,24.25-14-24.25h28m.43-.25H43.3L57.74,75,72.17,50Z"/><polygon class="cls-7" points="29.08 25.13 57.52 25.13 43.3 49.75 29.08 25.13"/><path d="M57.3,25.25,43.3,49.5l-14-24.25h28m.44-.25H28.87L43.3,50,57.74,25Z"/><polygon class="cls-8" points="14.65 50.13 43.09 50.13 28.87 74.75 14.65 50.13"/><path d="M42.87,50.25l-14,24.25-14-24.25h28M43.3,50H14.43L28.87,75,43.3,50Z"/></g></g></svg>