<svg width="128" height="131" viewBox="0 0 128 131" fill="none" xmlns="http://www.w3.org/2000/svg">
<rect x="1" y="25" width="127" height="105" fill="#C4C4C4"/>
<path d="M127.5 52.5V77.5V102V130H83.5H39.5H1V102V77.5V52.5V26H20H42.25V1H83.5H127.5V26V52.5Z" fill="#EE883D"/>
<path d="M1 52.5H20.25M1 77.5V102M1 77.5H20M1 77.5V26H42.25M1 102V130H39.5M1 102H20.25M127.5 102V130H83.5M127.5 102H103M127.5 102V26M39.5 102V130M39.5 102H61.5M39.5 102H20.25M39.5 130H83.5M83.5 130V102M83.5 102H103M83.5 102H61.5M103 77.5H127.5V52.5H103M103 77.5V102M103 77.5H82.25M61.5 102V77.5M61.5 77.5H40.75M61.5 77.5H82.25M20 77.5L20.25 102M20 77.5H40.75M39.5 52.5L40.75 77.5M39.5 52.5H60.875M39.5 52.5H20.25M82.25 77.5V52.5M82.25 52.5H103M82.25 52.5H60.875M127.5 26H103M127.5 26V1H83.5M103 26V52.5M103 26H83.5M60.875 52.5V26H20L20.25 52.5M83.5 1V26M83.5 1H42.25V26M83.5 26H42.25" stroke="black"/>
<path d="M66.5 40C60.3333 50.6667 51.7 72 66.5 72C81.3 72 72.6667 50.6667 66.5 40Z" fill="#686868"/>
<path d="M66.5 72C51.7 72 60.3333 50.6667 66.5 40C72.6667 50.6667 81.3 72 66.5 72ZM66.5 72V88" stroke="black"/>
</svg>
