<svg width="234" height="289" viewBox="0 0 234 289" fill="none" xmlns="http://www.w3.org/2000/svg">
<path d="M1.44437 236.769L27.8947 200.363L87.762 243.86L61.3117 280.265L1.44437 236.769Z" fill="#854141" stroke="black"/>
<path d="M75.3013 246.549L28.7828 212.751L12.9126 234.595L59.4311 268.393L75.3013 246.549Z" fill="#C4C4C4" stroke="black"/>
<path d="M88.4605 243.749L233.056 44.7308L199.886 20.6316L28.1887 199.959L88.4605 243.749Z" fill="#C4C4C4" stroke="black"/>
<path d="M8.50004 93.5C3.70004 76.7 16.1667 64.1667 23 60L33.5 51L40.5 45.5L44 48C46.8 48.4 50.1667 44.1667 51.5 42L38.5 25.5C33.3 26.7 30.6667 30.6667 30 32.5L33.5 37.5L17.5 51C-0.499992 66.2 4.00003 85.6667 8.50004 93.5Z" fill="#393535" stroke="black"/>
<path d="M34 51L23.5 60.5L206.5 288L217 279.5L34 51Z" fill="#B98537" stroke="black"/>
</svg>
