<svg width="26" height="29" viewBox="0 0 26 29" fill="none" xmlns="http://www.w3.org/2000/svg">
<path d="M3.20861 21C1.54194 23.5 -0.791393 28.5 3.20861 28.5C7.20861 28.5 4.87527 23.5 3.20861 21Z" fill="#160869"/>
<path d="M13 8.50001C5.5 8 5.5 10.5 5.5 15.5C6.3 15.5 6.5 16.5 6.5 16.5V17.5H0V16.5C0 16.1 0.333334 15.6667 1 15.5C1 3.5 6.5 4.00001 14 4.00001H18.5V2C17.8333 1.66667 17.2 1.2 16 2V0L19.5 0.500002L22.5 0V2C21.7 1.2 20.8333 1.66667 20 2V4.00001L25.5 4.00002V8.50001H13Z" fill="#1BA929"/>
<path d="M3.5 11C3.66667 10.1667 4.5 8.2 6.5 7" stroke="#FFFCFC" stroke-width="0.5"/>
</svg>
